PathFileType	4	(X/Y/Z)	Patient4_TMGait_0pt5_02_right_02.trc.trc
DataRate	CameraRate	NumFrames	NumMarkers	Units	OrigDataRate	OrigDataStartFrame	OrigNumFrames
79.096045197740	79.096045197740	4	33	mm	79.096045197740	18	       141
Frame#	Time	Sacral			L.Shoulder			Chest			R.Shoulder			Neck			R.ASIS			L.ASIS			R.Thigh.Superior			R.Thigh.Lateral			R.Thigh.Inferior			R.Patella			L.Thigh.Superior			L.Thigh.Lateral			L.Thigh.Inferior			L.Patella			L.Shank.Superior			L.Shank.Lateral			L.Shank.Inferior			R.Shank.Superior			R.Shank.Lateral			R.Shank.Inferior			R.Heel			R.Midfoot.Superior			R.Midfoot.Lateral			R.Toe			L.Heel			L.Midfoot.Lateral			L.Midfoot.Superior			L.Toe			L.Elbow			L.Wrist			R.Elbow			R.Wrist			
		X1	Y1	Z1	X2	Y2	Z2	X3	Y3	Z3	X4	Y4	Z4	X5	Y5	Z5	X6	Y6	Z6	X7	Y7	Z7	X8	Y8	Z8	X9	Y9	Z9	X10	Y10	Z10	X11	Y11	Z11	X12	Y12	Z12	X13	Y13	Z13	X14	Y14	Z14	X15	Y15	Z15	X16	Y16	Z16	X17	Y17	Z17	X18	Y18	Z18	X19	Y19	Z19	X20	Y20	Z20	X21	Y21	Z21	X22	Y22	Z22	X23	Y23	Z23	X24	Y24	Z24	X25	Y25	Z25	X26	Y26	Z26	X27	Y27	Z27	X28	Y28	Z28	X29	Y29	Z29	X30	Y30	Z30	X31	Y31	Z31	X32	Y32	Z32	X33	Y33	Z33	

18	2.774928571429	529.005088318580	1007.781449166787	447.010483088018	732.436512785074	1436.387328399336	286.164508950944	812.699079327127	1362.355808041802	457.776340429801	710.657091347709	1438.286577951264	620.772966575261	716.078133061543	1495.808363140370	436.693812182628	741.439984322810	942.801894823313	587.292301410062	757.122375195544	961.317095905095	311.955634761252	814.103737444684	765.295827407548	562.578941618335	762.655382007310	646.854588193494	632.118464145340	852.331774140254	606.145831795709	554.461212575408	883.442599087020	522.700938809461	572.000665864075	774.498846169165	739.201497421274	346.937900772746	676.115737094481	635.809452260326	275.785598887171	736.222193456226	548.477699675829	349.080499456098	724.243895129764	480.840359814304	359.132725726503	697.002464460226	411.664623205593	347.843755474852	606.996903453186	300.930611332600	290.720087258653	644.523587104122	189.859555995123	369.130797023161	864.894714944753	434.362318155984	580.459426303467	806.918179637237	321.915557536334	641.110441859206	874.470466233926	234.193212412431	591.019517045580	777.214312585013	48.061667949113	558.286598737490	938.632680824458	123.582201421251	606.300761051884	858.941362641241	45.615662383036	635.043823539776	1061.452713341604	86.330092050111	635.720544267805	506.838864646892	37.293495838392	405.221884395137	583.556357256568	34.612071029499	326.880329865170	665.520266786299	95.425725601984	357.293898260848	794.555309867882	46.313010939740	333.406328121543	740.338764282482	1101.198745836140	130.140419241610	978.469783297186	1001.821138891003	140.441088236501	562.241493267962	1127.837808989737	727.885564243266	535.534196891976	869.371602842581	748.417297452848	
19	2.787571428571	530.030918958605	1006.739315734866	448.155543159096	732.734308471166	1435.972423208460	288.553115287731	812.591050642200	1361.962003871102	460.368082641095	709.885118568737	1437.498570289171	623.105200671448	715.692720507351	1495.095012754623	439.085406854266	742.048438603700	941.758820491485	589.147681607195	758.472931421647	960.714365151710	313.860745026684	813.491366975831	762.987132785133	564.822117467490	759.770869403959	644.534882845736	633.128846894017	849.737772283155	603.632102714983	556.157125097190	879.654529421074	520.921538089052	572.826575816347	773.749090634234	737.856465988380	348.549473177075	674.294863059190	635.467470679942	276.702473383603	732.935019638793	547.496788031046	350.085552555195	720.233082879137	479.993386075974	359.938900887923	692.645236149651	411.075471636968	348.515195956448	602.035049950977	300.929799727340	291.078453266973	638.778033044924	189.518230183403	369.391206091647	862.452557308364	432.441597638221	581.221077533349	805.480070260019	319.035959020962	640.955396435705	874.679332581722	232.410520728009	591.067027423725	779.859692471699	45.881949793081	557.102689518568	940.570647316744	121.882118301126	605.997226514668	861.143984339010	43.778995270444	634.284538716585	1063.423942846644	85.179938970957	636.005739361124	500.442655205474	37.260296809719	405.218115519643	577.151776882256	34.590711413730	326.892014627016	659.117727501942	95.364726088151	357.393646208321	788.135977704390	46.266207999412	333.449478135903	742.236059581546	1100.838635135414	132.797434666462	982.967250934243	1008.832360868938	143.637176186353	559.024583607743	1128.038795236224	728.492305024666	530.746544607804	869.633513467304	748.158001266610	
20	2.800214285714	531.325278909174	1005.553139577196	449.527342580539	732.934065970678	1435.487247675494	291.074105379626	812.485884321512	1361.599804999011	463.088756420420	709.037363152475	1436.637662693476	625.603878179689	715.190221926329	1494.312690701632	441.625888848684	742.975183360575	940.662432022127	591.097164688903	760.039231699492	960.034838507005	315.901459463285	813.469347482333	760.745746999406	567.082855924952	757.348740856435	642.184459131270	633.920487298319	847.713395466775	601.197913543581	557.785827518243	876.208125010529	518.875327015464	573.489827807395	773.237603166782	736.406941599764	350.150770405269	672.573610859038	635.079256420621	277.762450137493	729.823696341217	546.465767659620	351.135479257082	716.411053522407	479.061968240207	360.821667129790	688.423348769509	410.436532603074	349.266010366681	597.112219172894	300.946311162661	291.513163473734	633.046352790191	189.142859626971	369.668499561301	859.904357907266	430.159991003193	581.774743550677	803.234352527184	316.200868864199	640.584682499587	873.386440194013	230.271625164125	590.838114791689	779.603223161535	44.350592860288	555.806636604090	940.192248958264	119.508079949763	605.225627701552	860.471214487500	42.113834132596	633.364361513494	1062.791989002323	82.404894556357	635.803282211105	494.035365334942	37.162429992549	405.216891985741	570.744269186408	34.530843305869	326.909851805183	652.704933674724	95.293662459419	357.492495151098	781.726385099678	46.203540825505	333.483924304492	743.858623295212	1100.274504602540	135.754746639252	986.823588116596	1015.173161326698	147.039715566859	556.605725268011	1127.669066992572	729.198037790447	527.400276899098	869.215479591463	747.856396886273	
21	2.812857142857	532.846401275132	1004.261268160278	451.106731656298	733.051947781226	1434.937322551848	293.726633827077	812.399046007612	1361.272360484167	465.934717358501	708.127647448436	1435.710988291573	628.260387233930	714.593658156923	1493.475833254046	444.316411279757	744.187653613291	939.528785206766	593.137465006687	761.800313718711	959.289522528549	318.082568135718	813.985669439067	758.571551806022	569.368082015319	755.375477778901	639.858455887907	634.534233337952	846.237340522193	598.880982996573	559.356094168730	873.128099025504	516.621988231713	574.009106807077	772.990133751020	734.872555320336	351.735942883913	670.994105772086	634.638758174784	278.983469991197	726.967289651465	545.382468761916	352.251700417595	712.878981135939	478.022299086246	361.803467529902	684.411673116412	409.726750120168	350.118909463925	592.276967716239	300.984560274673	292.045425391738	627.349928854947	188.726828433621	369.973969914019	857.340275182617	427.601718356886	582.152771504160	800.396034677095	313.425071728991	640.082278489543	870.877135617538	227.818567167561	590.381061553344	776.869844666647	43.318086955114	554.504014032406	937.862220073151	116.583824109088	604.034639544342	857.388061213128	40.608659425112	632.369671017916	1060.015852897522	78.313255881956	635.135751116188	487.616291668536	37.000498055876	405.213115010319	564.338190558775	34.428444817925	326.937133838103	646.291809630492	95.211518720195	357.589478231578	775.337225257039	46.112786140125	333.507191771313	745.220719429795	1099.514608650878	138.986582081107	990.075825141947	1020.763837731596	150.630145454826	554.979443090201	1126.737012140725	730.028074539098	525.498156756904	868.130905889382	747.565242034987	
